<svg xmlns="http://www.w3.org/2000/svg" x="0px" y="0px"
width="64" height="64"
viewBox="0 0 172 172"
style=" fill:#000000;"><g fill="none" fill-rule="nonzero" stroke="none" stroke-width="1" stroke-linecap="butt" stroke-linejoin="miter" stroke-miterlimit="10" stroke-dasharray="" stroke-dashoffset="0" font-family="none" font-weight="none" font-size="none" text-anchor="none" style="mix-blend-mode: normal"><path d="M0,172v-172h172v172z" fill="none"></path><g fill="#7615c2"><path d="M86,7.99273c-35.98637,0 -65.26361,29.27789 -65.26361,65.26426c0,37.42224 30.89546,52.9525 54.56465,79.49573l-57.51121,-23.50723c-1.69056,-0.69065 -3.62193,0.11928 -4.31357,1.81083c-0.69098,1.69089 0.11994,3.62226 1.81083,4.31356c74.23156,30.33815 69.63652,28.53669 70.34337,28.61542c0.55966,0.06318 1.10822,-0.01777 1.62025,-0.22417l69.46154,-28.39124c1.69089,-0.69131 2.50181,-2.62267 1.81083,-4.31356c-0.69098,-1.69089 -2.6217,-2.50148 -4.31292,-1.81083l-57.51121,23.50723c23.693,-26.57168 54.56465,-42.07811 54.56465,-79.49638c0,-35.98637 -29.27724,-65.26361 -65.26361,-65.26361zM86,14.60876c32.33865,0 58.64823,26.30958 58.64823,58.64823c0,36.91087 -33.97185,50.49721 -58.64823,81.96229c-24.68035,-31.47005 -58.64823,-45.04547 -58.64823,-81.96229c0,-32.33865 26.30958,-58.64823 58.64823,-58.64823zM19.84615,16.53846c-5.47158,0 -9.92308,4.45149 -9.92308,9.92308c0,5.47158 4.45149,9.92308 9.92308,9.92308c5.47158,0 9.92308,-4.45149 9.92308,-9.92308c0,-5.47158 -4.45149,-9.92308 -9.92308,-9.92308zM155.46154,16.53846c-1.82679,0 -3.30769,1.4809 -3.30769,3.30769c0,1.82679 1.4809,3.30769 3.30769,3.30769c1.82679,0 3.30769,-1.4809 3.30769,-3.30769c0,-1.82679 -1.4809,-3.30769 -3.30769,-3.30769zM19.84615,23.15385c1.82386,0 3.30769,1.48383 3.30769,3.30769c0,1.82386 -1.48383,3.30769 -3.30769,3.30769c-1.82386,0 -3.30769,-1.48383 -3.30769,-3.30769c0,-1.82386 1.48383,-3.30769 3.30769,-3.30769zM86.16991,26.46154c-0.56636,-0.00107 -1.13333,0.14342 -1.64222,0.43284l-34.89357,19.84615c-1.30488,0.74225 -1.94645,2.26974 -1.56276,3.72115c0.38369,1.45075 1.69684,2.46139 3.19787,2.46139h6.60634v16.53846h-6.60634c-1.82684,0 -3.30769,1.48085 -3.30769,3.30769v16.53846c0,1.82651 1.48085,3.30769 3.30769,3.30769h26.56684c1.82684,0 3.30769,-1.48118 3.30769,-3.30769v-14.56677c0,-2.91077 2.36797,-5.27939 5.27874,-5.27939c2.9111,0 5.27939,2.36862 5.27939,5.27939v14.56677c0,1.82651 1.48118,3.30769 3.30769,3.30769h25.72118c1.82651,0 3.30769,-1.48118 3.30769,-3.30769v-16.53846c0,-1.82684 -1.48118,-3.30769 -3.30769,-3.30769h-6.61538v-16.53846h6.62184c1.82684,0 3.30769,-1.48085 3.30769,-3.30769c0,-1.28504 -0.73238,-2.3988 -1.80308,-2.94656l-34.4323,-19.76798c-0.50757,-0.29174 -1.07327,-0.43823 -1.63963,-0.4393zM86.15505,33.57889l22.17123,12.7288h-44.55113zM13.23077,43c-1.82679,0 -3.30769,1.4809 -3.30769,3.30769c0,1.82679 1.4809,3.30769 3.30769,3.30769c1.82679,0 3.30769,-1.4809 3.30769,-3.30769c0,-1.82679 -1.4809,-3.30769 -3.30769,-3.30769zM158.76923,46.30769c-1.82679,0 -3.30769,1.4809 -3.30769,3.30769c0,1.82679 1.4809,3.30769 3.30769,3.30769c1.82679,0 3.30769,-1.4809 3.30769,-3.30769c0,-1.82679 -1.4809,-3.30769 -3.30769,-3.30769zM64.49096,52.92308h43.00904v33.07692h-9.18272v-11.25907c0,-6.55882 -5.33628,-11.89477 -11.89477,-11.89477c-6.55849,0 -11.89412,5.33595 -11.89412,11.89477v11.25907h-10.03742zM54.57692,76.07692h3.29865v9.92308h-3.29865zM114.11538,76.07692h3.30769v9.92308h-3.30769zM121.36776,99.23077c-0.95299,0.0138 -1.89239,0.43746 -2.53504,1.23974c-8.69096,10.84857 -21.93818,19.99251 -32.83272,33.56662c-10.8661,-13.53838 -24.16358,-22.74583 -32.83337,-33.56662c-1.14182,-1.42562 -3.22323,-1.65541 -4.6495,-0.5136c-1.42562,1.14215 -1.6551,3.22454 -0.51295,4.65015c9.87247,12.32347 24.40912,21.85609 35.32318,36.8181c1.32208,1.81096 4.0252,1.80701 5.34464,-0.00065c10.91307,-14.9597 25.455,-24.49927 35.32383,-36.8181c1.14215,-1.42562 0.91235,-3.50736 -0.5136,-4.6495c-0.62385,-0.49954 -1.37326,-0.73688 -2.11447,-0.72614zM18.19231,102.53846c-4.55965,0 -8.26923,3.70958 -8.26923,8.26923c0,4.55965 3.70958,8.26923 8.26923,8.26923c4.55965,0 8.26923,-3.70958 8.26923,-8.26923c0,-4.55965 -3.70958,-8.26923 -8.26923,-8.26923zM18.19231,109.15385c0.91193,0 1.65385,0.74192 1.65385,1.65385c0,0.91193 -0.74192,1.65385 -1.65385,1.65385c-0.91193,0 -1.65385,-0.74192 -1.65385,-1.65385c0,-0.91193 0.74192,-1.65385 1.65385,-1.65385zM147.19231,109.15385c-4.55965,0 -8.26923,3.70958 -8.26923,8.26923c0,4.55965 3.70958,8.26923 8.26923,8.26923c4.55965,0 8.26923,-3.70958 8.26923,-8.26923c0,-4.55965 -3.70958,-8.26923 -8.26923,-8.26923zM33.07692,115.76923c-1.82679,0 -3.30769,1.4809 -3.30769,3.30769c0,1.82679 1.4809,3.30769 3.30769,3.30769c1.82679,0 3.30769,-1.4809 3.30769,-3.30769c0,-1.82679 -1.4809,-3.30769 -3.30769,-3.30769zM147.19231,115.76923c0.91193,0 1.65385,0.74192 1.65385,1.65385c0,0.91193 -0.74192,1.65385 -1.65385,1.65385c-0.91193,0 -1.65385,-0.74192 -1.65385,-1.65385c0,-0.91193 0.74192,-1.65385 1.65385,-1.65385zM152.15385,145.53846c-1.82679,0 -3.30769,1.4809 -3.30769,3.30769c0,1.82679 1.4809,3.30769 3.30769,3.30769c1.82679,0 3.30769,-1.4809 3.30769,-3.30769c0,-1.82679 -1.4809,-3.30769 -3.30769,-3.30769zM29.76923,148.84615c-1.82679,0 -3.30769,1.4809 -3.30769,3.30769c0,1.82679 1.4809,3.30769 3.30769,3.30769c1.82679,0 3.30769,-1.4809 3.30769,-3.30769c0,-1.82679 -1.4809,-3.30769 -3.30769,-3.30769zM122.38462,155.46154c-1.82679,0 -3.30769,1.4809 -3.30769,3.30769c0,1.82679 1.4809,3.30769 3.30769,3.30769c1.82679,0 3.30769,-1.4809 3.30769,-3.30769c0,-1.82679 -1.4809,-3.30769 -3.30769,-3.30769z"></path></g></g></svg>