
<svg xmlns="http://www.w3.org/2000/svg" x="0px" y="0px"
width="32" height="32"
viewBox="0 0 172 172"
style=" fill:#000000;"><g fill="none" fill-rule="nonzero" stroke="none" stroke-width="1" stroke-linecap="butt" stroke-linejoin="miter" stroke-miterlimit="10" stroke-dasharray="" stroke-dashoffset="0" font-family="none" font-weight="none" font-size="none" text-anchor="none" style="mix-blend-mode: normal"><path d="M0,172v-172h172v172z" fill="none"></path><g fill="#7615c2"><path d="M124.0751,172c-14.50175,0 -27.23719,-8.32101 -38.47272,-15.66178l-2.16392,-1.41199c-15.30615,-9.94689 -29.40504,-21.76375 -41.90557,-35.12253c-14.8193,-15.83367 -27.78176,-33.88768 -36.49907,-50.83285c-7.52054,-14.61852 -6.47862,-32.89825 2.65469,-46.56801c1.6705,-2.49986 3.60082,-4.85142 5.7398,-6.98909l12.1213,-12.11606c2.12587,-2.12716 4.95379,-3.2977 7.96148,-3.2977c3.00637,0 5.83166,1.17054 7.95753,3.29506l24.23606,24.22819c2.12587,2.12455 3.29638,4.95115 3.29638,7.95753c0,3.00637 -1.17186,5.83298 -3.2977,7.95753l-15.63421,15.62897c-2.01038,2.01038 -2.33713,5.24116 -0.7611,7.5179c15.22611,21.98552 34.09634,40.84922 56.08581,56.06875c0.95009,0.65613 2.07467,1.00389 3.25308,1.00389v0c1.59046,0 3.14548,-0.64301 4.26877,-1.76631l15.63289,-15.62765c2.12716,-2.12716 4.95508,-3.2977 7.96145,-3.2977c3.00637,0 5.83298,1.17054 7.95884,3.29377l24.23606,24.22951c2.12587,2.12587 3.29638,4.95115 3.29638,7.95753c-0.00134,3.00766 -1.1732,5.83295 -3.29904,7.95879l-12.12001,12.11606c-8.48898,8.48635 -20.24416,13.39944 -32.25263,13.47687c-0.00524,0 -0.24932,0.00132 -0.25456,0.00132zM33.51108,5.375c-1.57208,0 -3.04969,0.61151 -4.16116,1.72298l-12.1213,12.11606c-1.88966,1.88966 -3.59561,3.96828 -5.07056,6.1755c-8.06642,12.07144 -8.98633,28.21351 -2.345,41.12216c8.49685,16.51606 21.15487,34.13835 35.64351,49.62033c12.20399,13.0412 25.96824,24.57724 40.9109,34.28793l2.1744,1.41854c11.1266,7.2699 22.63114,14.78649 35.53324,14.78649v2.6875l0.21914,-2.68882c10.60697,-0.06824 20.98954,-4.40656 28.48777,-11.90216l12.12001,-12.11737c1.11147,-1.11147 1.72298,-2.58777 1.7243,-4.15724c0,-1.57076 -0.61151,-3.04706 -1.72169,-4.15724l-24.23606,-24.22819c-2.22033,-2.21773 -6.09673,-2.21773 -8.31969,0.00263l-15.63289,15.62897c-2.12455,2.12323 -5.06532,3.3397 -8.06906,3.3397v0c-2.27677,0 -4.45905,-0.67712 -6.31063,-1.95919c-22.52356,-15.58828 -41.85177,-34.90995 -57.44795,-57.42825c-3.08117,-4.45117 -2.50115,-10.49936 1.38049,-14.37839l15.63421,-15.62897c1.11147,-1.11147 1.72298,-2.58777 1.72298,-4.15724c0,-1.57076 -0.61151,-3.04706 -1.72169,-4.15724l-24.23606,-24.22819c-1.11013,-1.10881 -2.58642,-1.72032 -4.15719,-1.72032z"></path><path d="M31.98098,89.75436c-0.83592,0 -1.66002,-0.38842 -2.18491,-1.11805c-2.94209,-4.09293 -5.71881,-8.2449 -8.25277,-12.33783c-2.55495,-4.12574 -4.89472,-8.24622 -6.95232,-12.24597c-0.67975,-1.32013 -0.16009,-2.94077 1.16003,-3.6192c1.32276,-0.67712 2.94077,-0.16009 3.6192,1.16003c1.99332,3.87379 4.26221,7.86959 6.74237,11.87593c2.46968,3.98927 5.17685,8.03624 8.04807,12.02815c0.8661,1.20596 0.59181,2.88565 -0.61283,3.75175c-0.47504,0.34118 -1.02356,0.5052 -1.56684,0.5052z"></path><path d="M158.34729,155.65979c-0.68762,0 -1.37525,-0.26246 -1.90014,-0.78736l-36.36128,-36.36128c-1.04982,-1.04982 -1.04982,-2.7505 0,-3.80029c1.04982,-1.04979 2.7505,-1.04982 3.80029,0l36.36131,36.36131c1.04982,1.04982 1.04982,2.7505 0,3.80029c-0.52492,0.5249 -1.21255,0.78733 -1.90017,0.78733z"></path><path d="M55.36277,52.67527c-0.68762,0 -1.37525,-0.26246 -1.90014,-0.78736l-36.36263,-36.3626c-1.04982,-1.04982 -1.04982,-2.75049 0,-3.80029c1.04982,-1.04979 2.75049,-1.04982 3.80029,0l36.3626,36.3626c1.04982,1.04982 1.04982,2.7505 0,3.80029c-0.52487,0.5249 -1.21249,0.78736 -1.90012,0.78736z"></path><path d="M83.3125,91.375c-0.68762,0 -1.37525,-0.26246 -1.90014,-0.78736c-1.04982,-1.04982 -1.04982,-2.7505 0,-3.80029l10.75,-10.75c1.04982,-1.04982 2.7505,-1.04982 3.80029,0c1.04979,1.04982 1.04982,2.7505 0,3.80029l-10.75,10.75c-0.5249,0.5249 -1.21252,0.78736 -1.90014,0.78736z"></path><path d="M110.1875,64.5c-0.69942,0 -1.39755,-0.29657 -1.90802,-0.77948c-0.48423,-0.51046 -0.77948,-1.20989 -0.77948,-1.90802c0,-0.69942 0.29525,-1.39755 0.77948,-1.90802c0.99338,-0.9947 2.82134,-0.9947 3.81603,0c0.48292,0.51046 0.77948,1.2086 0.77948,1.90802c0,0.69813 -0.29657,1.39755 -0.77948,1.90802c-0.51046,0.48292 -1.20989,0.77948 -1.90802,0.77948z"></path><path d="M163.9375,69.875c-1.48417,0 -2.6875,-1.20333 -2.6875,-2.6875c0,-31.12015 -25.31735,-56.4375 -56.4375,-56.4375c-1.48417,0 -2.6875,-1.20333 -2.6875,-2.6875c0,-1.48417 1.20333,-2.6875 2.6875,-2.6875c34.08322,0 61.8125,27.72928 61.8125,61.8125c0,1.48417 -1.20333,2.6875 -2.6875,2.6875z"></path><path d="M145.26671,69.875c-1.48417,0 -2.6875,-1.20333 -2.6875,-2.6875c0,-20.8242 -16.94254,-37.76671 -37.76671,-37.76671c-1.48417,0 -2.6875,-1.20333 -2.6875,-2.6875c0,-1.48417 1.20333,-2.6875 2.6875,-2.6875c23.78857,0 43.14171,19.35314 43.14171,43.14171c0,1.48417 -1.20333,2.6875 -2.6875,2.6875z"></path><path d="M126.59595,69.875c-1.48417,0 -2.6875,-1.20333 -2.6875,-2.6875c0,-10.52954 -8.56641,-19.09595 -19.09595,-19.09595c-1.48417,0 -2.6875,-1.20333 -2.6875,-2.6875c0,-1.48417 1.20333,-2.6875 2.6875,-2.6875c13.49394,0 24.47095,10.97701 24.47095,24.47095c0,1.48417 -1.20335,2.6875 -2.6875,2.6875z"></path><path d="M102.125,72.5625c-0.69942,0 -1.39755,-0.29657 -1.90802,-0.77948c-0.48423,-0.51046 -0.77948,-1.20989 -0.77948,-1.90802c0,-0.69942 0.29525,-1.39755 0.77948,-1.90802c1.02093,-0.9947 2.79379,-0.9947 3.81603,0c0.48292,0.51046 0.77948,1.2086 0.77948,1.90802c0,0.69813 -0.29657,1.39755 -0.77948,1.90802c-0.51046,0.48292 -1.20989,0.77948 -1.90802,0.77948z"></path></g></g></svg>